<svg xmlns="http://www.w3.org/2000/svg" width="1855" height="3312" viewBox="0 0 1855 3312">
  <g id="starGroup1" transform="translate(-16 2258)">
    <circle id="Ellipse_2" data-name="Ellipse 2" cx="4.5" cy="4.5" r="4.5" transform="translate(94 138)" fill="#fff"/>
    <circle id="Ellipse_5" data-name="Ellipse 5" cx="4.5" cy="4.5" r="4.5" transform="translate(168 456)" fill="#fff"/>
    <circle id="Ellipse_8" data-name="Ellipse 8" cx="4.5" cy="4.5" r="4.5" transform="translate(54 595)" fill="#fff"/>
    <circle id="Ellipse_11" data-name="Ellipse 11" cx="4.5" cy="4.5" r="4.5" transform="translate(1178 550)" fill="#fff"/>
    <circle id="Ellipse_14" data-name="Ellipse 14" cx="4.5" cy="4.5" r="4.5" transform="translate(474 948)" fill="#fff"/>
    <circle id="Ellipse_17" data-name="Ellipse 17" cx="4.5" cy="4.5" r="4.5" transform="translate(1862 36)" fill="#fff"/>
    <circle id="Ellipse_20" data-name="Ellipse 20" cx="4.5" cy="4.5" r="4.5" transform="translate(1613 771)" fill="#fff"/>
    <circle id="Ellipse_23" data-name="Ellipse 23" cx="4.5" cy="4.5" r="4.5" transform="translate(820 31)" fill="#fff"/>
    <circle id="Ellipse_26" data-name="Ellipse 26" cx="4.5" cy="4.5" r="4.5" transform="translate(319 966)" fill="#fff"/>
    <circle id="Ellipse_29" data-name="Ellipse 29" cx="4.5" cy="4.5" r="4.5" transform="translate(151 890)" fill="#fff"/>
    <circle id="Ellipse_32" data-name="Ellipse 32" cx="4.5" cy="4.5" r="4.5" transform="translate(636 77)" fill="#fff"/>
    <circle id="Ellipse_35" data-name="Ellipse 35" cx="10.5" cy="10.5" r="10.5" transform="translate(798 1033)" fill="#fff"/>
    <circle id="Ellipse_38" data-name="Ellipse 38" cx="10.5" cy="10.5" r="10.5" transform="translate(352 620)" fill="#fff"/>
    <circle id="Ellipse_41" data-name="Ellipse 41" cx="2.5" cy="2.5" r="2.5" transform="translate(636 625)" fill="#fff"/>
    <circle id="Ellipse_44" data-name="Ellipse 44" cx="2.5" cy="2.5" r="2.5" transform="translate(1575 897)" fill="#fff"/>
    <circle id="Ellipse_47" data-name="Ellipse 47" cx="4.5" cy="4.5" r="4.5" transform="translate(1815 640)" fill="#fff"/>
    <circle id="Ellipse_49" data-name="Ellipse 49" cx="4.5" cy="4.5" r="4.5" transform="translate(1815 469)" fill="#fff"/>
    <circle id="Ellipse_52" data-name="Ellipse 52" cx="4.5" cy="4.5" r="4.5" transform="translate(1202 832)" fill="#fff"/>
    <circle id="Ellipse_55" data-name="Ellipse 55" cx="4.5" cy="4.5" r="4.5" transform="translate(495 846)" fill="#fff"/>
    <circle id="Ellipse_58" data-name="Ellipse 58" cx="4.5" cy="4.5" r="4.5" transform="translate(1393 172)" fill="#fff"/>
    <circle id="Ellipse_61" data-name="Ellipse 61" cx="4.5" cy="4.5" r="4.5" transform="translate(1272 11)" fill="#fff"/>
    <circle id="Ellipse_64" data-name="Ellipse 64" cx="4.5" cy="4.5" r="4.5" transform="translate(1136 31)" fill="#fff"/>
    <circle id="Ellipse_67" data-name="Ellipse 67" cx="4.5" cy="4.5" r="4.5" transform="translate(1636 579)" fill="#fff"/>
    <circle id="Ellipse_70" data-name="Ellipse 70" cx="2.5" cy="2.5" r="2.5" transform="translate(1583 513)" fill="#fff"/>
    <circle id="Ellipse_73" data-name="Ellipse 73" cx="4.5" cy="4.5" r="4.5" transform="translate(1644 195)" fill="#fff"/>
    <circle id="Ellipse_76" data-name="Ellipse 76" cx="4.5" cy="4.5" r="4.5" transform="translate(1839 228)" fill="#fff"/>
    <circle id="Ellipse_79" data-name="Ellipse 79" cx="10.5" cy="10.5" r="10.5" transform="translate(1027 331)" fill="#fff"/>
    <circle id="Ellipse_3" data-name="Ellipse 3" cx="4.5" cy="4.5" r="4.5" transform="translate(390 -2258)" fill="#fff"/>
    <circle id="Ellipse_6" data-name="Ellipse 6" cx="4.5" cy="4.5" r="4.5" transform="translate(944 -1693)" fill="#fff"/>
    <circle id="Ellipse_9" data-name="Ellipse 9" cx="4.5" cy="4.5" r="4.5" transform="translate(1010 -1776)" fill="#fff"/>
    <circle id="Ellipse_12" data-name="Ellipse 12" cx="4.5" cy="4.5" r="4.5" transform="translate(1780 -1261)" fill="#fff"/>
    <circle id="Ellipse_15" data-name="Ellipse 15" cx="4.5" cy="4.5" r="4.5" transform="translate(632 -1423)" fill="#fff"/>
    <circle id="Ellipse_18" data-name="Ellipse 18" cx="4.5" cy="4.5" r="4.5" transform="translate(140 -1279)" fill="#fff"/>
    <circle id="Ellipse_21" data-name="Ellipse 21" cx="4.5" cy="4.5" r="4.5" transform="translate(565 -1296)" fill="#fff"/>
    <circle id="Ellipse_24" data-name="Ellipse 24" cx="4.5" cy="4.5" r="4.5" transform="translate(893 -2096)" fill="#fff"/>
    <circle id="Ellipse_27" data-name="Ellipse 27" cx="4.5" cy="4.5" r="4.5" transform="translate(16 -1354)" fill="#fff"/>
    <circle id="Ellipse_30" data-name="Ellipse 30" cx="4.5" cy="4.5" r="4.5" transform="translate(527 -1390)" fill="#fff"/>
    <circle id="Ellipse_33" data-name="Ellipse 33" cx="4.5" cy="4.5" r="4.5" transform="translate(626 -2075)" fill="#fff"/>
    <circle id="Ellipse_36" data-name="Ellipse 36" cx="10.5" cy="10.5" r="10.5" transform="translate(166 -2096)" fill="#fff"/>
    <circle id="Ellipse_39" data-name="Ellipse 39" cx="2.5" cy="2.5" r="2.5" transform="translate(1350 -1778)" fill="#fff"/>
    <circle id="Ellipse_42" data-name="Ellipse 42" cx="2.5" cy="2.5" r="2.5" transform="translate(498 -1776)" fill="#fff"/>
    <circle id="Ellipse_45" data-name="Ellipse 45" cx="4.5" cy="4.5" r="4.5" transform="translate(1437 -1338)" fill="#fff"/>
    <circle id="Ellipse_48" data-name="Ellipse 48" cx="4.5" cy="4.5" r="4.5" transform="translate(980 -1486)" fill="#fff"/>
    <circle id="Ellipse_51" data-name="Ellipse 51" cx="4.5" cy="4.5" r="4.5" transform="translate(814 -1430)" fill="#fff"/>
    <circle id="Ellipse_54" data-name="Ellipse 54" cx="2.5" cy="2.5" r="2.5" transform="translate(579 -1489)" fill="#fff"/>
    <circle id="Ellipse_57" data-name="Ellipse 57" cx="2.5" cy="2.5" r="2.5" transform="translate(1684 -1294)" fill="#fff"/>
    <circle id="Ellipse_60" data-name="Ellipse 60" cx="4.5" cy="4.5" r="4.5" transform="translate(1125 -2138)" fill="#fff"/>
    <circle id="Ellipse_63" data-name="Ellipse 63" cx="4.5" cy="4.5" r="4.5" transform="translate(1001 -2213)" fill="#fff"/>
    <circle id="Ellipse_66" data-name="Ellipse 66" cx="10.5" cy="10.5" r="10.5" transform="translate(1426 -2204)" fill="#fff"/>
    <circle id="Ellipse_69" data-name="Ellipse 69" cx="10.5" cy="10.5" r="10.5" transform="translate(1563 -1625)" fill="#fff"/>
    <circle id="Ellipse_72" data-name="Ellipse 72" cx="4.5" cy="4.5" r="4.5" transform="translate(1573 -2155)" fill="#fff"/>
    <circle id="Ellipse_75" data-name="Ellipse 75" cx="4.5" cy="4.5" r="4.5" transform="translate(1550 -1963)" fill="#fff"/>
    <circle id="Ellipse_78" data-name="Ellipse 78" cx="4.5" cy="4.5" r="4.5" transform="translate(1542 -1579)" fill="#fff"/>
    <circle id="Ellipse_1" data-name="Ellipse 1" cx="4.5" cy="4.5" r="4.5" transform="translate(94 -972)" fill="#fff"/>
    <circle id="Ellipse_4" data-name="Ellipse 4" cx="4.5" cy="4.5" r="4.5" transform="translate(352 -793)" fill="#fff"/>
    <circle id="Ellipse_7" data-name="Ellipse 7" cx="4.5" cy="4.5" r="4.5" transform="translate(599 -560)" fill="#fff"/>
    <circle id="Ellipse_10" data-name="Ellipse 10" cx="2.5" cy="2.5" r="2.5" transform="translate(1222 -491)" fill="#fff"/>
    <circle id="Ellipse_13" data-name="Ellipse 13" cx="4.5" cy="4.5" r="4.5" transform="translate(408 -79)" fill="#fff"/>
    <circle id="Ellipse_16" data-name="Ellipse 16" cx="4.5" cy="4.5" r="4.5" transform="translate(963 -376)" fill="#fff"/>
    <circle id="Ellipse_19" data-name="Ellipse 19" cx="4.5" cy="4.5" r="4.5" transform="translate(1807 -257)" fill="#fff"/>
    <circle id="Ellipse_22" data-name="Ellipse 22" cx="4.5" cy="4.5" r="4.5" transform="translate(1831 -498)" fill="#fff"/>
    <circle id="Ellipse_25" data-name="Ellipse 25" cx="4.5" cy="4.5" r="4.5" transform="translate(287 -240)" fill="#fff"/>
    <circle id="Ellipse_28" data-name="Ellipse 28" cx="4.5" cy="4.5" r="4.5" transform="translate(1131 -878)" fill="#fff"/>
    <circle id="Ellipse_31" data-name="Ellipse 31" cx="4.5" cy="4.5" r="4.5" transform="translate(485 -980)" fill="#fff"/>
    <circle id="Ellipse_34" data-name="Ellipse 34" cx="4.5" cy="4.5" r="4.5" transform="translate(793 -975)" fill="#fff"/>
    <circle id="Ellipse_37" data-name="Ellipse 37" cx="10.5" cy="10.5" r="10.5" transform="translate(155 -339)" fill="#fff"/>
    <circle id="Ellipse_40" data-name="Ellipse 40" cx="2.5" cy="2.5" r="2.5" transform="translate(868 -576)" fill="#fff"/>
    <circle id="Ellipse_43" data-name="Ellipse 43" cx="2.5" cy="2.5" r="2.5" transform="translate(1301 -468)" fill="#fff"/>
    <circle id="Ellipse_46" data-name="Ellipse 46" cx="4.5" cy="4.5" r="4.5" transform="translate(1440 -654)" fill="#fff"/>
    <circle id="Ellipse_49-2" data-name="Ellipse 49" cx="4.5" cy="4.5" r="4.5" transform="translate(1815 -641)" fill="#fff"/>
    <circle id="Ellipse_52-2" data-name="Ellipse 52" cx="4.5" cy="4.5" r="4.5" transform="translate(1202 -278)" fill="#fff"/>
    <circle id="Ellipse_55-2" data-name="Ellipse 55" cx="4.5" cy="4.5" r="4.5" transform="translate(495 -264)" fill="#fff"/>
    <circle id="Ellipse_58-2" data-name="Ellipse 58" cx="4.5" cy="4.5" r="4.5" transform="translate(1393 -938)" fill="#fff"/>
    <circle id="Ellipse_61-2" data-name="Ellipse 61" cx="4.5" cy="4.5" r="4.5" transform="translate(1272 -1099)" fill="#fff"/>
    <circle id="Ellipse_64-2" data-name="Ellipse 64" cx="4.5" cy="4.5" r="4.5" transform="translate(1136 -1079)" fill="#fff"/>
    <circle id="Ellipse_67-2" data-name="Ellipse 67" cx="4.5" cy="4.5" r="4.5" transform="translate(1636 -531)" fill="#fff"/>
    <circle id="Ellipse_70-2" data-name="Ellipse 70" cx="2.5" cy="2.5" r="2.5" transform="translate(1583 -597)" fill="#fff"/>
    <circle id="Ellipse_73-2" data-name="Ellipse 73" cx="4.5" cy="4.5" r="4.5" transform="translate(1644 -915)" fill="#fff"/>
    <circle id="Ellipse_76-2" data-name="Ellipse 76" cx="4.5" cy="4.5" r="4.5" transform="translate(1839 -882)" fill="#fff"/>
    <circle id="Ellipse_79-2" data-name="Ellipse 79" cx="10.5" cy="10.5" r="10.5" transform="translate(1027 -779)" fill="#fff"/>
  </g>
</svg>
