<svg xmlns="http://www.w3.org/2000/svg" width="1817" height="3333" viewBox="0 0 1817 3333">
  <g id="starGroup3" transform="translate(-54 2274)">
    <circle id="Ellipse_1" data-name="Ellipse 1" cx="4.5" cy="4.5" r="4.5" transform="translate(94 138)" fill="#fff"/>
    <circle id="Ellipse_4" data-name="Ellipse 4" cx="4.5" cy="4.5" r="4.5" transform="translate(352 317)" fill="#fff"/>
    <circle id="Ellipse_7" data-name="Ellipse 7" cx="4.5" cy="4.5" r="4.5" transform="translate(599 550)" fill="#fff"/>
    <circle id="Ellipse_10" data-name="Ellipse 10" cx="2.5" cy="2.5" r="2.5" transform="translate(1222 619)" fill="#fff"/>
    <circle id="Ellipse_13" data-name="Ellipse 13" cx="4.5" cy="4.5" r="4.5" transform="translate(408 1031)" fill="#fff"/>
    <circle id="Ellipse_16" data-name="Ellipse 16" cx="4.5" cy="4.5" r="4.5" transform="translate(963 734)" fill="#fff"/>
    <circle id="Ellipse_19" data-name="Ellipse 19" cx="4.5" cy="4.5" r="4.5" transform="translate(1807 853)" fill="#fff"/>
    <circle id="Ellipse_22" data-name="Ellipse 22" cx="4.5" cy="4.5" r="4.5" transform="translate(1831 612)" fill="#fff"/>
    <circle id="Ellipse_25" data-name="Ellipse 25" cx="4.5" cy="4.5" r="4.5" transform="translate(287 870)" fill="#fff"/>
    <circle id="Ellipse_28" data-name="Ellipse 28" cx="4.5" cy="4.5" r="4.5" transform="translate(1131 232)" fill="#fff"/>
    <circle id="Ellipse_31" data-name="Ellipse 31" cx="4.5" cy="4.5" r="4.5" transform="translate(485 130)" fill="#fff"/>
    <circle id="Ellipse_34" data-name="Ellipse 34" cx="4.5" cy="4.5" r="4.5" transform="translate(793 135)" fill="#fff"/>
    <circle id="Ellipse_37" data-name="Ellipse 37" cx="10.5" cy="10.5" r="10.5" transform="translate(155 771)" fill="#fff"/>
    <circle id="Ellipse_40" data-name="Ellipse 40" cx="2.5" cy="2.5" r="2.5" transform="translate(868 534)" fill="#fff"/>
    <circle id="Ellipse_43" data-name="Ellipse 43" cx="2.5" cy="2.5" r="2.5" transform="translate(1301 642)" fill="#fff"/>
    <circle id="Ellipse_46" data-name="Ellipse 46" cx="4.5" cy="4.5" r="4.5" transform="translate(1440 456)" fill="#fff"/>
    <circle id="Ellipse_50" data-name="Ellipse 50" cx="4.5" cy="4.5" r="4.5" transform="translate(984 991)" fill="#fff"/>
    <circle id="Ellipse_53" data-name="Ellipse 53" cx="10.5" cy="10.5" r="10.5" transform="translate(613 943)" fill="#fff"/>
    <circle id="Ellipse_56" data-name="Ellipse 56" cx="2.5" cy="2.5" r="2.5" transform="translate(1335 885)" fill="#fff"/>
    <circle id="Ellipse_59" data-name="Ellipse 59" cx="4.5" cy="4.5" r="4.5" transform="translate(1459 89)" fill="#fff"/>
    <circle id="Ellipse_62" data-name="Ellipse 62" cx="4.5" cy="4.5" r="4.5" transform="translate(1304 107)" fill="#fff"/>
    <circle id="Ellipse_65" data-name="Ellipse 65" cx="4.5" cy="4.5" r="4.5" transform="translate(1539 36)" fill="#fff"/>
    <circle id="Ellipse_68" data-name="Ellipse 68" cx="4.5" cy="4.5" r="4.5" transform="translate(1472 1050)" fill="#fff"/>
    <circle id="Ellipse_71" data-name="Ellipse 71" cx="4.5" cy="4.5" r="4.5" transform="translate(1472 563)" fill="#fff"/>
    <circle id="Ellipse_74" data-name="Ellipse 74" cx="4.5" cy="4.5" r="4.5" transform="translate(1621 387)" fill="#fff"/>
    <circle id="Ellipse_77" data-name="Ellipse 77" cx="10.5" cy="10.5" r="10.5" transform="translate(1304 951)" fill="#fff"/>
    <circle id="Ellipse_1-2" data-name="Ellipse 1" cx="4.5" cy="4.5" r="4.5" transform="translate(67 -2147)" fill="#fff"/>
    <circle id="Ellipse_4-2" data-name="Ellipse 4" cx="4.5" cy="4.5" r="4.5" transform="translate(325 -1968)" fill="#fff"/>
    <circle id="Ellipse_7-2" data-name="Ellipse 7" cx="4.5" cy="4.5" r="4.5" transform="translate(572 -1735)" fill="#fff"/>
    <circle id="Ellipse_10-2" data-name="Ellipse 10" cx="2.5" cy="2.5" r="2.5" transform="translate(1195 -1666)" fill="#fff"/>
    <circle id="Ellipse_13-2" data-name="Ellipse 13" cx="4.5" cy="4.5" r="4.5" transform="translate(381 -1254)" fill="#fff"/>
    <circle id="Ellipse_16-2" data-name="Ellipse 16" cx="4.5" cy="4.5" r="4.5" transform="translate(936 -1551)" fill="#fff"/>
    <circle id="Ellipse_19-2" data-name="Ellipse 19" cx="4.5" cy="4.5" r="4.5" transform="translate(1780 -1432)" fill="#fff"/>
    <circle id="Ellipse_22-2" data-name="Ellipse 22" cx="4.5" cy="4.5" r="4.5" transform="translate(1804 -1673)" fill="#fff"/>
    <circle id="Ellipse_25-2" data-name="Ellipse 25" cx="4.5" cy="4.5" r="4.5" transform="translate(260 -1415)" fill="#fff"/>
    <circle id="Ellipse_28-2" data-name="Ellipse 28" cx="4.5" cy="4.5" r="4.5" transform="translate(1104 -2053)" fill="#fff"/>
    <circle id="Ellipse_31-2" data-name="Ellipse 31" cx="4.5" cy="4.5" r="4.5" transform="translate(458 -2155)" fill="#fff"/>
    <circle id="Ellipse_34-2" data-name="Ellipse 34" cx="4.5" cy="4.5" r="4.5" transform="translate(766 -2150)" fill="#fff"/>
    <circle id="Ellipse_37-2" data-name="Ellipse 37" cx="10.5" cy="10.5" r="10.5" transform="translate(128 -1514)" fill="#fff"/>
    <circle id="Ellipse_40-2" data-name="Ellipse 40" cx="2.5" cy="2.5" r="2.5" transform="translate(841 -1751)" fill="#fff"/>
    <circle id="Ellipse_43-2" data-name="Ellipse 43" cx="2.5" cy="2.5" r="2.5" transform="translate(1274 -1643)" fill="#fff"/>
    <circle id="Ellipse_46-2" data-name="Ellipse 46" cx="4.5" cy="4.5" r="4.5" transform="translate(1413 -1829)" fill="#fff"/>
    <circle id="Ellipse_49" data-name="Ellipse 49" cx="4.5" cy="4.5" r="4.5" transform="translate(1788 -1816)" fill="#fff"/>
    <circle id="Ellipse_52" data-name="Ellipse 52" cx="4.5" cy="4.5" r="4.5" transform="translate(1175 -1453)" fill="#fff"/>
    <circle id="Ellipse_55" data-name="Ellipse 55" cx="4.5" cy="4.5" r="4.5" transform="translate(468 -1439)" fill="#fff"/>
    <circle id="Ellipse_58" data-name="Ellipse 58" cx="4.5" cy="4.5" r="4.5" transform="translate(1366 -2113)" fill="#fff"/>
    <circle id="Ellipse_61" data-name="Ellipse 61" cx="4.5" cy="4.5" r="4.5" transform="translate(1245 -2274)" fill="#fff"/>
    <circle id="Ellipse_64" data-name="Ellipse 64" cx="4.5" cy="4.5" r="4.5" transform="translate(1109 -2254)" fill="#fff"/>
    <circle id="Ellipse_67" data-name="Ellipse 67" cx="4.5" cy="4.5" r="4.5" transform="translate(1609 -1706)" fill="#fff"/>
    <circle id="Ellipse_70" data-name="Ellipse 70" cx="2.5" cy="2.5" r="2.5" transform="translate(1556 -1772)" fill="#fff"/>
    <circle id="Ellipse_73" data-name="Ellipse 73" cx="4.5" cy="4.5" r="4.5" transform="translate(1617 -2090)" fill="#fff"/>
    <circle id="Ellipse_76" data-name="Ellipse 76" cx="4.5" cy="4.5" r="4.5" transform="translate(1812 -2057)" fill="#fff"/>
    <circle id="Ellipse_2" data-name="Ellipse 2" cx="4.5" cy="4.5" r="4.5" transform="translate(94 -972)" fill="#fff"/>
    <circle id="Ellipse_5" data-name="Ellipse 5" cx="4.5" cy="4.5" r="4.5" transform="translate(168 -654)" fill="#fff"/>
    <circle id="Ellipse_8" data-name="Ellipse 8" cx="4.5" cy="4.5" r="4.5" transform="translate(54 -515)" fill="#fff"/>
    <circle id="Ellipse_11" data-name="Ellipse 11" cx="4.5" cy="4.5" r="4.5" transform="translate(1178 -560)" fill="#fff"/>
    <circle id="Ellipse_14" data-name="Ellipse 14" cx="4.5" cy="4.5" r="4.5" transform="translate(474 -162)" fill="#fff"/>
    <circle id="Ellipse_17" data-name="Ellipse 17" cx="4.5" cy="4.5" r="4.5" transform="translate(1862 -1074)" fill="#fff"/>
    <circle id="Ellipse_20" data-name="Ellipse 20" cx="4.5" cy="4.5" r="4.5" transform="translate(1613 -339)" fill="#fff"/>
    <circle id="Ellipse_23" data-name="Ellipse 23" cx="4.5" cy="4.5" r="4.5" transform="translate(820 -1079)" fill="#fff"/>
    <circle id="Ellipse_26" data-name="Ellipse 26" cx="4.5" cy="4.5" r="4.5" transform="translate(319 -144)" fill="#fff"/>
    <circle id="Ellipse_29" data-name="Ellipse 29" cx="4.5" cy="4.5" r="4.5" transform="translate(151 -220)" fill="#fff"/>
    <circle id="Ellipse_32" data-name="Ellipse 32" cx="4.5" cy="4.5" r="4.5" transform="translate(636 -1033)" fill="#fff"/>
    <circle id="Ellipse_35" data-name="Ellipse 35" cx="10.5" cy="10.5" r="10.5" transform="translate(803 -317)" fill="#fff"/>
    <circle id="Ellipse_38" data-name="Ellipse 38" cx="10.5" cy="10.5" r="10.5" transform="translate(352 -490)" fill="#fff"/>
    <circle id="Ellipse_41" data-name="Ellipse 41" cx="2.5" cy="2.5" r="2.5" transform="translate(636 -485)" fill="#fff"/>
    <circle id="Ellipse_44" data-name="Ellipse 44" cx="2.5" cy="2.5" r="2.5" transform="translate(1575 -213)" fill="#fff"/>
    <circle id="Ellipse_47" data-name="Ellipse 47" cx="4.5" cy="4.5" r="4.5" transform="translate(1815 -470)" fill="#fff"/>
    <circle id="Ellipse_50-2" data-name="Ellipse 50" cx="4.5" cy="4.5" r="4.5" transform="translate(984 -119)" fill="#fff"/>
    <circle id="Ellipse_53-2" data-name="Ellipse 53" cx="10.5" cy="10.5" r="10.5" transform="translate(613 -167)" fill="#fff"/>
    <circle id="Ellipse_56-2" data-name="Ellipse 56" cx="2.5" cy="2.5" r="2.5" transform="translate(1335 -225)" fill="#fff"/>
    <circle id="Ellipse_59-2" data-name="Ellipse 59" cx="4.5" cy="4.5" r="4.5" transform="translate(1459 -1021)" fill="#fff"/>
    <circle id="Ellipse_62-2" data-name="Ellipse 62" cx="4.5" cy="4.5" r="4.5" transform="translate(1304 -1003)" fill="#fff"/>
    <circle id="Ellipse_65-2" data-name="Ellipse 65" cx="4.5" cy="4.5" r="4.5" transform="translate(1539 -1074)" fill="#fff"/>
    <circle id="Ellipse_68-2" data-name="Ellipse 68" cx="4.5" cy="4.5" r="4.5" transform="translate(1472 -60)" fill="#fff"/>
    <circle id="Ellipse_71-2" data-name="Ellipse 71" cx="4.5" cy="4.5" r="4.5" transform="translate(1472 -547)" fill="#fff"/>
    <circle id="Ellipse_74-2" data-name="Ellipse 74" cx="4.5" cy="4.5" r="4.5" transform="translate(1621 -723)" fill="#fff"/>
    <circle id="Ellipse_77-2" data-name="Ellipse 77" cx="10.5" cy="10.5" r="10.5" transform="translate(1304 -159)" fill="#fff"/>
  </g>
</svg>
