<svg xmlns="http://www.w3.org/2000/svg" width="1817" height="3287" viewBox="0 0 1817 3287">
  <g id="starGroup2" transform="translate(-27 2254)">
    <circle id="Ellipse_3" data-name="Ellipse 3" cx="4.5" cy="4.5" r="4.5" transform="translate(417 27)" fill="#fff"/>
    <circle id="Ellipse_6" data-name="Ellipse 6" cx="4.5" cy="4.5" r="4.5" transform="translate(971 592)" fill="#fff"/>
    <circle id="Ellipse_9" data-name="Ellipse 9" cx="4.5" cy="4.5" r="4.5" transform="translate(1037 509)" fill="#fff"/>
    <circle id="Ellipse_12" data-name="Ellipse 12" cx="4.5" cy="4.5" r="4.5" transform="translate(1807 1024)" fill="#fff"/>
    <circle id="Ellipse_15" data-name="Ellipse 15" cx="4.5" cy="4.5" r="4.5" transform="translate(659 862)" fill="#fff"/>
    <circle id="Ellipse_18" data-name="Ellipse 18" cx="4.5" cy="4.5" r="4.5" transform="translate(167 1006)" fill="#fff"/>
    <circle id="Ellipse_21" data-name="Ellipse 21" cx="4.5" cy="4.5" r="4.5" transform="translate(592 989)" fill="#fff"/>
    <circle id="Ellipse_24" data-name="Ellipse 24" cx="4.5" cy="4.5" r="4.5" transform="translate(920 189)" fill="#fff"/>
    <circle id="Ellipse_27" data-name="Ellipse 27" cx="4.5" cy="4.5" r="4.5" transform="translate(43 931)" fill="#fff"/>
    <circle id="Ellipse_30" data-name="Ellipse 30" cx="4.5" cy="4.5" r="4.5" transform="translate(554 895)" fill="#fff"/>
    <circle id="Ellipse_33" data-name="Ellipse 33" cx="4.5" cy="4.5" r="4.5" transform="translate(653 210)" fill="#fff"/>
    <circle id="Ellipse_36" data-name="Ellipse 36" cx="10.5" cy="10.5" r="10.5" transform="translate(193 189)" fill="#fff"/>
    <circle id="Ellipse_39" data-name="Ellipse 39" cx="2.5" cy="2.5" r="2.5" transform="translate(1377 507)" fill="#fff"/>
    <circle id="Ellipse_42" data-name="Ellipse 42" cx="2.5" cy="2.5" r="2.5" transform="translate(525 509)" fill="#fff"/>
    <circle id="Ellipse_45" data-name="Ellipse 45" cx="4.5" cy="4.5" r="4.5" transform="translate(1464 947)" fill="#fff"/>
    <circle id="Ellipse_48" data-name="Ellipse 48" cx="4.5" cy="4.5" r="4.5" transform="translate(1007 799)" fill="#fff"/>
    <circle id="Ellipse_51" data-name="Ellipse 51" cx="4.5" cy="4.5" r="4.5" transform="translate(940 926)" fill="#fff"/>
    <circle id="Ellipse_54" data-name="Ellipse 54" cx="2.5" cy="2.5" r="2.5" transform="translate(606 796)" fill="#fff"/>
    <circle id="Ellipse_57" data-name="Ellipse 57" cx="2.5" cy="2.5" r="2.5" transform="translate(1711 991)" fill="#fff"/>
    <circle id="Ellipse_60" data-name="Ellipse 60" cx="4.5" cy="4.5" r="4.5" transform="translate(1152 147)" fill="#fff"/>
    <circle id="Ellipse_63" data-name="Ellipse 63" cx="4.5" cy="4.5" r="4.5" transform="translate(1028 72)" fill="#fff"/>
    <circle id="Ellipse_66" data-name="Ellipse 66" cx="10.5" cy="10.5" r="10.5" transform="translate(1453 81)" fill="#fff"/>
    <circle id="Ellipse_69" data-name="Ellipse 69" cx="10.5" cy="10.5" r="10.5" transform="translate(1590 660)" fill="#fff"/>
    <circle id="Ellipse_72" data-name="Ellipse 72" cx="4.5" cy="4.5" r="4.5" transform="translate(1600 130)" fill="#fff"/>
    <circle id="Ellipse_75" data-name="Ellipse 75" cx="4.5" cy="4.5" r="4.5" transform="translate(1577 322)" fill="#fff"/>
    <circle id="Ellipse_78" data-name="Ellipse 78" cx="4.5" cy="4.5" r="4.5" transform="translate(1569 706)" fill="#fff"/>
    <circle id="Ellipse_2" data-name="Ellipse 2" cx="4.5" cy="4.5" r="4.5" transform="translate(67 -2147)" fill="#fff"/>
    <circle id="Ellipse_5" data-name="Ellipse 5" cx="4.5" cy="4.5" r="4.5" transform="translate(141 -1829)" fill="#fff"/>
    <circle id="Ellipse_8" data-name="Ellipse 8" cx="4.5" cy="4.5" r="4.5" transform="translate(27 -1690)" fill="#fff"/>
    <circle id="Ellipse_11" data-name="Ellipse 11" cx="4.5" cy="4.5" r="4.5" transform="translate(1151 -1735)" fill="#fff"/>
    <circle id="Ellipse_14" data-name="Ellipse 14" cx="4.5" cy="4.5" r="4.5" transform="translate(447 -1337)" fill="#fff"/>
    <circle id="Ellipse_17" data-name="Ellipse 17" cx="4.5" cy="4.5" r="4.5" transform="translate(1835 -2249)" fill="#fff"/>
    <circle id="Ellipse_20" data-name="Ellipse 20" cx="4.5" cy="4.5" r="4.5" transform="translate(1586 -1514)" fill="#fff"/>
    <circle id="Ellipse_23" data-name="Ellipse 23" cx="4.5" cy="4.5" r="4.5" transform="translate(793 -2254)" fill="#fff"/>
    <circle id="Ellipse_26" data-name="Ellipse 26" cx="4.5" cy="4.5" r="4.5" transform="translate(292 -1319)" fill="#fff"/>
    <circle id="Ellipse_29" data-name="Ellipse 29" cx="4.5" cy="4.5" r="4.5" transform="translate(124 -1395)" fill="#fff"/>
    <circle id="Ellipse_32" data-name="Ellipse 32" cx="4.5" cy="4.5" r="4.5" transform="translate(609 -2208)" fill="#fff"/>
    <circle id="Ellipse_35" data-name="Ellipse 35" cx="10.5" cy="10.5" r="10.5" transform="translate(759 -1275)" fill="#fff"/>
    <circle id="Ellipse_38" data-name="Ellipse 38" cx="10.5" cy="10.5" r="10.5" transform="translate(325 -1665)" fill="#fff"/>
    <circle id="Ellipse_41" data-name="Ellipse 41" cx="2.5" cy="2.5" r="2.5" transform="translate(609 -1660)" fill="#fff"/>
    <circle id="Ellipse_44" data-name="Ellipse 44" cx="2.5" cy="2.5" r="2.5" transform="translate(1548 -1388)" fill="#fff"/>
    <circle id="Ellipse_47" data-name="Ellipse 47" cx="4.5" cy="4.5" r="4.5" transform="translate(1788 -1645)" fill="#fff"/>
    <circle id="Ellipse_50" data-name="Ellipse 50" cx="4.5" cy="4.5" r="4.5" transform="translate(1092 -1296)" fill="#fff"/>
    <circle id="Ellipse_53" data-name="Ellipse 53" cx="10.5" cy="10.5" r="10.5" transform="translate(586 -1342)" fill="#fff"/>
    <circle id="Ellipse_56" data-name="Ellipse 56" cx="2.5" cy="2.5" r="2.5" transform="translate(1308 -1400)" fill="#fff"/>
    <circle id="Ellipse_59" data-name="Ellipse 59" cx="4.5" cy="4.5" r="4.5" transform="translate(1432 -2196)" fill="#fff"/>
    <circle id="Ellipse_62" data-name="Ellipse 62" cx="4.5" cy="4.5" r="4.5" transform="translate(1277 -2178)" fill="#fff"/>
    <circle id="Ellipse_65" data-name="Ellipse 65" cx="4.5" cy="4.5" r="4.5" transform="translate(1512 -2249)" fill="#fff"/>
    <circle id="Ellipse_68" data-name="Ellipse 68" cx="4.5" cy="4.5" r="4.5" transform="translate(1445 -1235)" fill="#fff"/>
    <circle id="Ellipse_71" data-name="Ellipse 71" cx="4.5" cy="4.5" r="4.5" transform="translate(1445 -1722)" fill="#fff"/>
    <circle id="Ellipse_74" data-name="Ellipse 74" cx="4.5" cy="4.5" r="4.5" transform="translate(1594 -1898)" fill="#fff"/>
    <circle id="Ellipse_77" data-name="Ellipse 77" cx="10.5" cy="10.5" r="10.5" transform="translate(1277 -1334)" fill="#fff"/>
    <circle id="Ellipse_3-2" data-name="Ellipse 3" cx="4.5" cy="4.5" r="4.5" transform="translate(417 -1083)" fill="#fff"/>
    <circle id="Ellipse_6-2" data-name="Ellipse 6" cx="4.5" cy="4.5" r="4.5" transform="translate(971 -518)" fill="#fff"/>
    <circle id="Ellipse_9-2" data-name="Ellipse 9" cx="4.5" cy="4.5" r="4.5" transform="translate(1037 -601)" fill="#fff"/>
    <circle id="Ellipse_12-2" data-name="Ellipse 12" cx="4.5" cy="4.5" r="4.5" transform="translate(1807 -86)" fill="#fff"/>
    <circle id="Ellipse_15-2" data-name="Ellipse 15" cx="4.5" cy="4.5" r="4.5" transform="translate(659 -248)" fill="#fff"/>
    <circle id="Ellipse_18-2" data-name="Ellipse 18" cx="4.5" cy="4.5" r="4.5" transform="translate(167 -104)" fill="#fff"/>
    <circle id="Ellipse_21-2" data-name="Ellipse 21" cx="4.5" cy="4.5" r="4.5" transform="translate(592 -121)" fill="#fff"/>
    <circle id="Ellipse_24-2" data-name="Ellipse 24" cx="4.5" cy="4.5" r="4.5" transform="translate(920 -921)" fill="#fff"/>
    <circle id="Ellipse_27-2" data-name="Ellipse 27" cx="4.5" cy="4.5" r="4.5" transform="translate(43 -179)" fill="#fff"/>
    <circle id="Ellipse_30-2" data-name="Ellipse 30" cx="4.5" cy="4.5" r="4.5" transform="translate(554 -215)" fill="#fff"/>
    <circle id="Ellipse_33-2" data-name="Ellipse 33" cx="4.5" cy="4.5" r="4.5" transform="translate(653 -900)" fill="#fff"/>
    <circle id="Ellipse_36-2" data-name="Ellipse 36" cx="10.5" cy="10.5" r="10.5" transform="translate(193 -921)" fill="#fff"/>
    <circle id="Ellipse_39-2" data-name="Ellipse 39" cx="2.5" cy="2.5" r="2.5" transform="translate(1377 -603)" fill="#fff"/>
    <circle id="Ellipse_42-2" data-name="Ellipse 42" cx="2.5" cy="2.5" r="2.5" transform="translate(525 -601)" fill="#fff"/>
    <circle id="Ellipse_45-2" data-name="Ellipse 45" cx="4.5" cy="4.5" r="4.5" transform="translate(1464 -163)" fill="#fff"/>
    <circle id="Ellipse_48-2" data-name="Ellipse 48" cx="4.5" cy="4.5" r="4.5" transform="translate(1007 -311)" fill="#fff"/>
    <circle id="Ellipse_51-2" data-name="Ellipse 51" cx="4.5" cy="4.5" r="4.5" transform="translate(940 -184)" fill="#fff"/>
    <circle id="Ellipse_54-2" data-name="Ellipse 54" cx="2.5" cy="2.5" r="2.5" transform="translate(606 -314)" fill="#fff"/>
    <circle id="Ellipse_57-2" data-name="Ellipse 57" cx="2.5" cy="2.5" r="2.5" transform="translate(1711 -119)" fill="#fff"/>
    <circle id="Ellipse_60-2" data-name="Ellipse 60" cx="4.5" cy="4.5" r="4.5" transform="translate(1152 -963)" fill="#fff"/>
    <circle id="Ellipse_63-2" data-name="Ellipse 63" cx="4.5" cy="4.5" r="4.5" transform="translate(1028 -1038)" fill="#fff"/>
    <circle id="Ellipse_66-2" data-name="Ellipse 66" cx="10.5" cy="10.5" r="10.5" transform="translate(1453 -1029)" fill="#fff"/>
    <circle id="Ellipse_69-2" data-name="Ellipse 69" cx="10.5" cy="10.5" r="10.5" transform="translate(1590 -450)" fill="#fff"/>
    <circle id="Ellipse_72-2" data-name="Ellipse 72" cx="4.5" cy="4.5" r="4.5" transform="translate(1600 -980)" fill="#fff"/>
    <circle id="Ellipse_75-2" data-name="Ellipse 75" cx="4.5" cy="4.5" r="4.5" transform="translate(1577 -788)" fill="#fff"/>
    <circle id="Ellipse_78-2" data-name="Ellipse 78" cx="4.5" cy="4.5" r="4.5" transform="translate(1569 -404)" fill="#fff"/>
  </g>
</svg>
